<svg width="49" height="49" viewBox="0 0 49 49" fill="none" xmlns="http://www.w3.org/2000/svg">
<path d="M16.1 4.5H32.9C39.3 4.5 44.5 9.7 44.5 16.1V32.9C44.5 35.9765 43.2779 38.927 41.1024 41.1024C38.927 43.2779 35.9765 44.5 32.9 44.5H16.1C9.7 44.5 4.5 39.3 4.5 32.9V16.1C4.5 13.0235 5.72214 10.073 7.89756 7.89756C10.073 5.72214 13.0235 4.5 16.1 4.5ZM15.7 8.5C13.7904 8.5 11.9591 9.25857 10.6088 10.6088C9.25857 11.9591 8.5 13.7904 8.5 15.7V33.3C8.5 37.28 11.72 40.5 15.7 40.5H33.3C35.2096 40.5 37.0409 39.7414 38.3912 38.3912C39.7414 37.0409 40.5 35.2096 40.5 33.3V15.7C40.5 11.72 37.28 8.5 33.3 8.5H15.7ZM35 11.5C35.663 11.5 36.2989 11.7634 36.7678 12.2322C37.2366 12.7011 37.5 13.337 37.5 14C37.5 14.663 37.2366 15.2989 36.7678 15.7678C36.2989 16.2366 35.663 16.5 35 16.5C34.337 16.5 33.7011 16.2366 33.2322 15.7678C32.7634 15.2989 32.5 14.663 32.5 14C32.5 13.337 32.7634 12.7011 33.2322 12.2322C33.7011 11.7634 34.337 11.5 35 11.5ZM24.5 14.5C27.1522 14.5 29.6957 15.5536 31.5711 17.4289C33.4464 19.3043 34.5 21.8478 34.5 24.5C34.5 27.1522 33.4464 29.6957 31.5711 31.5711C29.6957 33.4464 27.1522 34.5 24.5 34.5C21.8478 34.5 19.3043 33.4464 17.4289 31.5711C15.5536 29.6957 14.5 27.1522 14.5 24.5C14.5 21.8478 15.5536 19.3043 17.4289 17.4289C19.3043 15.5536 21.8478 14.5 24.5 14.5ZM24.5 18.5C22.9087 18.5 21.3826 19.1321 20.2574 20.2574C19.1321 21.3826 18.5 22.9087 18.5 24.5C18.5 26.0913 19.1321 27.6174 20.2574 28.7426C21.3826 29.8679 22.9087 30.5 24.5 30.5C26.0913 30.5 27.6174 29.8679 28.7426 28.7426C29.8679 27.6174 30.5 26.0913 30.5 24.5C30.5 22.9087 29.8679 21.3826 28.7426 20.2574C27.6174 19.1321 26.0913 18.5 24.5 18.5Z" fill="black"/>
</svg>
